<svg xmlns="http://www.w3.org/2000/svg" class="css-ze2te4 css-qd6ojx" viewBox="0 0 53.03030303030303 105.3679901173927"><g transform="translate(-28.70412846060306, -2.1997493768730574) scale(1.0998746884365287)" class="css-1yqbmuu" fill="#805300"><path xmlns="http://www.w3.org/2000/svg" d="M74.1,90.4c0,0-0.4-0.6-0.5-1.2c-0.1-0.6-0.1-1.1-0.1-1.1l0.1-42.7l0.5-0.7c0,0,0.1-0.2,0.2-0.4  c0-0.2,0-5,0-5s0.2-0.3-1-0.7c-2.1-0.8-4.8-1.3-7.7-2.5c-2.6-1.1-4.1-2.3-4.6-2.7c-0.1-0.1,0-0.3,0-0.3s0.5-0.4,0.4-1  c-0.1-0.7-0.8-0.9-0.8-0.9s-0.3-0.1-0.2-0.3c0.3-0.9,1.5-4.1,1.1-7.4c-0.5-3.9-2.5-7.5-2.6-8.2c-0.4-1.6,0.9-2.7,0.9-2.7  s0.2-0.2,0.2-0.4c0-0.2-0.4-4.2-0.4-4.2L59.7,7c0,0-0.3-3.4-0.3-3.7c-0.1-0.4-1.7-0.7-1.7-0.7S55.2,2,50.1,2c-5.1,0-7.6,0.6-7.6,0.6  s-1.7,0.4-1.7,0.7C40.7,3.6,40.5,7,40.5,7l0.2,0.9c0,0-0.4,4-0.4,4.2c0,0.2,0.2,0.4,0.2,0.4s1.3,1.2,0.9,2.7  c-0.2,0.7-2.1,4.3-2.6,8.2c-0.4,3.2,0.8,6.4,1.1,7.4c0.1,0.2-0.2,0.3-0.2,0.3s-0.7,0.3-0.7,0.9c-0.1,0.7,0.4,1,0.4,1s0.2,0.1,0,0.3  c-0.5,0.5-2,1.6-4.6,2.7c-2.9,1.3-5.6,1.8-7.7,2.5c-1.1,0.4-1,0.7-1,0.7s0,4.8,0,5c0,0.2,0.2,0.4,0.2,0.4l0.5,0.7l0.1,42.7  c0,0,0,0.5-0.1,1.1c-0.1,0.6-0.5,1.2-0.5,1.2s-0.2,0.3-0.2,0.7c0,1.5,0.1,3.6,0.7,5.5c0.4,1.3,2.6,1.3,2.6,1.3H71c0,0,2.3,0,2.6-1.3  c0.5-1.9,0.7-4,0.7-5.5C74.3,90.8,74.1,90.4,74.1,90.4z M41.1,22.6c0.5-3.5,2.4-6.8,2.6-7.4c0.4-1.4-0.9-2.5-0.9-2.5  s-0.2-0.1-0.2-0.3c0-0.2,0.4-3.7,0.4-3.7L43,7.8c0,0,0.2-2.3,0.3-2.6c0.1-0.3,1.6-0.7,6.7-0.7s6.9,0.3,6.9,0.6  c0,0.3,0.2,2.6,0.2,2.6l-0.2,0.8c0,0,0.4,3.6,0.4,3.7c0,0.2-0.2,0.3-0.2,0.3s-1.2,1-0.9,2.5c0.2,0.6,2.1,3.9,2.6,7.4  c0.1,0.7,0.1,2.2,0.1,2.2s-1.9-0.4-8.8-0.4c-6.9,0-9,0.7-9,0.7S41,23.4,41.1,22.6z M45.6,37.7c2.5,0.5,8,1.5,12.8,2.1  c2.5,0.3,4.5,0.5,6.3,0.7C66.1,40.7,56,41.4,48,41c-8.1-0.4-11.6-0.7-13-0.9C32.2,39.7,40.8,36.7,45.6,37.7z M71,88.1H29.2V47.7H71  V88.1z"/></g></svg>