<svg width="54" height="106" viewBox="0 0 54 106" fill="none" xmlns="http://www.w3.org/2000/svg">
<g clip-path="url(#clip0_5_8)">
<path d="M52.7966 97.2289C52.7966 97.2289 52.3566 96.569 52.2467 95.9091C52.1367 95.2491 52.1367 94.6992 52.1367 94.6992L52.2467 47.7346L52.7966 46.9646C52.7966 46.9646 52.9066 46.7447 53.0166 46.5247C53.0166 46.3047 53.0166 41.0253 53.0166 41.0253C53.0166 41.0253 53.2365 40.6954 51.9167 40.2554C49.607 39.3755 46.6373 38.8256 43.4477 37.5057C40.588 36.2959 38.9382 34.976 38.3882 34.5361C38.2782 34.4261 38.3882 34.2061 38.3882 34.2061C38.3882 34.2061 38.9382 33.7661 38.8282 33.1062C38.7182 32.3363 37.9483 32.1163 37.9483 32.1163C37.9483 32.1163 37.6183 32.0064 37.7283 31.7864C38.0583 30.7965 39.3781 27.2769 38.9382 23.6473C38.3882 19.3578 36.1885 15.3982 36.0785 14.6283C35.6385 12.8685 37.0684 11.6587 37.0684 11.6587C37.0684 11.6587 37.2884 11.4387 37.2884 11.2187C37.2884 10.9987 36.8484 6.59925 36.8484 6.59925L36.9584 5.49937C36.9584 5.49937 36.6284 1.7598 36.6284 1.42984C36.5184 0.989887 34.7586 0.659925 34.7586 0.659925C34.7586 0.659925 32.009 0 26.3996 0C20.7902 0 18.0405 0.659925 18.0405 0.659925C18.0405 0.659925 16.1708 1.09987 16.1708 1.42984C16.0608 1.7598 15.8408 5.49937 15.8408 5.49937L16.0608 6.48926C16.0608 6.48926 15.6208 10.8888 15.6208 11.1087C15.6208 11.3287 15.8408 11.5487 15.8408 11.5487C15.8408 11.5487 17.2706 12.8685 16.8307 14.5183C16.6107 15.2883 14.5209 19.2478 13.971 23.5373C13.5311 27.0569 14.8509 30.5765 15.1809 31.6764C15.2909 31.8964 14.9609 32.0064 14.9609 32.0064C14.9609 32.0064 14.191 32.3363 14.191 32.9962C14.081 33.7662 14.6309 34.0961 14.6309 34.0961C14.6309 34.0961 14.8509 34.2061 14.6309 34.4261C14.081 34.976 12.4312 36.1859 9.57151 37.3957C6.38188 38.8256 3.41221 39.3755 1.10248 40.1454C-0.107384 40.5854 0.00260326 40.9153 0.00260326 40.9153C0.00260326 40.9153 0.00260326 46.1947 0.00260326 46.4147C0.00260326 46.6347 0.222577 46.8547 0.222577 46.8547L0.772514 47.6246L0.882502 94.5892C0.882502 94.5892 0.882502 95.1392 0.772514 95.7991C0.662527 96.459 0.222577 97.1189 0.222577 97.1189C0.222577 97.1189 0.00260326 97.4489 0.00260326 97.8888C0.00260326 99.5387 0.112589 101.848 0.772514 103.938C1.21246 105.368 3.63219 105.368 3.63219 105.368H49.387C49.387 105.368 51.9167 105.368 52.2467 103.938C52.7966 101.848 53.0166 99.5387 53.0166 97.8888C53.0166 97.6689 52.7966 97.2289 52.7966 97.2289ZM16.5007 22.6574C17.0507 18.8079 19.1404 15.1783 19.3604 14.5183C19.8003 12.9785 18.3705 11.7687 18.3705 11.7687C18.3705 11.7687 18.1505 11.6587 18.1505 11.4387C18.1505 11.2187 18.5905 7.36916 18.5905 7.36916V6.37927C18.5905 6.37927 18.8105 3.84956 18.9204 3.5196C19.0304 3.18964 20.6802 2.74969 26.2896 2.74969C31.899 2.74969 33.8787 3.07965 33.8787 3.40961C33.8787 3.73957 34.0987 6.26929 34.0987 6.26929L33.8787 7.14919C33.8787 7.14919 34.3187 11.1087 34.3187 11.2187C34.3187 11.4387 34.0987 11.5487 34.0987 11.5487C34.0987 11.5487 32.7789 12.6486 33.1088 14.2984C33.3288 14.9583 35.4186 18.5879 35.9685 22.4374C36.0785 23.2074 36.0785 24.8572 36.0785 24.8572C36.0785 24.8572 33.9887 24.4172 26.3996 24.4172C18.8105 24.4172 16.5007 25.1871 16.5007 25.1871C16.5007 25.1871 16.3907 23.5373 16.5007 22.6574ZM21.4502 39.2655C24.1998 39.8155 30.2492 40.9153 35.5286 41.5753C38.2782 41.9052 40.478 42.1252 42.4578 42.3452C43.9976 42.5651 32.8889 43.3351 24.0899 42.8951C15.1809 42.4552 11.3313 42.1252 9.79149 41.9052C6.71184 41.4653 16.1708 38.1657 21.4502 39.2655ZM49.387 94.6992H3.41222V50.2643H49.387V94.6992Z" fill="#111111"/>
</g>
<defs>
<clipPath id="clip0_5_8">
<rect width="53.0303" height="105.368" fill="white"/>
</clipPath>
</defs>
</svg>
