<svg xmlns="http://www.w3.org/2000/svg" viewBox="0 0 369.969696969697 105.3679901173927" preserveAspectRatio="xMidYMid meet" class="css-88gl6m" id="bbbgfefc"><defs id="SvgjsDefs1532"/><g id="SvgjsG1533" featurekey="tOsHRK-0" transform="matrix(1.0998746884365287,0,0,1.0998746884365287,-28.70412846060306,-2.1997493768730574)" fill="#111"><path xmlns="http://www.w3.org/2000/svg" d="M74.1,90.4c0,0-0.4-0.6-0.5-1.2c-0.1-0.6-0.1-1.1-0.1-1.1l0.1-42.7l0.5-0.7c0,0,0.1-0.2,0.2-0.4  c0-0.2,0-5,0-5s0.2-0.3-1-0.7c-2.1-0.8-4.8-1.3-7.7-2.5c-2.6-1.1-4.1-2.3-4.6-2.7c-0.1-0.1,0-0.3,0-0.3s0.5-0.4,0.4-1  c-0.1-0.7-0.8-0.9-0.8-0.9s-0.3-0.1-0.2-0.3c0.3-0.9,1.5-4.1,1.1-7.4c-0.5-3.9-2.5-7.5-2.6-8.2c-0.4-1.6,0.9-2.7,0.9-2.7  s0.2-0.2,0.2-0.4c0-0.2-0.4-4.2-0.4-4.2L59.7,7c0,0-0.3-3.4-0.3-3.7c-0.1-0.4-1.7-0.7-1.7-0.7S55.2,2,50.1,2c-5.1,0-7.6,0.6-7.6,0.6  s-1.7,0.4-1.7,0.7C40.7,3.6,40.5,7,40.5,7l0.2,0.9c0,0-0.4,4-0.4,4.2c0,0.2,0.2,0.4,0.2,0.4s1.3,1.2,0.9,2.7  c-0.2,0.7-2.1,4.3-2.6,8.2c-0.4,3.2,0.8,6.4,1.1,7.4c0.1,0.2-0.2,0.3-0.2,0.3s-0.7,0.3-0.7,0.9c-0.1,0.7,0.4,1,0.4,1s0.2,0.1,0,0.3  c-0.5,0.5-2,1.6-4.6,2.7c-2.9,1.3-5.6,1.8-7.7,2.5c-1.1,0.4-1,0.7-1,0.7s0,4.8,0,5c0,0.2,0.2,0.4,0.2,0.4l0.5,0.7l0.1,42.7  c0,0,0,0.5-0.1,1.1c-0.1,0.6-0.5,1.2-0.5,1.2s-0.2,0.3-0.2,0.7c0,1.5,0.1,3.6,0.7,5.5c0.4,1.3,2.6,1.3,2.6,1.3H71c0,0,2.3,0,2.6-1.3  c0.5-1.9,0.7-4,0.7-5.5C74.3,90.8,74.1,90.4,74.1,90.4z M41.1,22.6c0.5-3.5,2.4-6.8,2.6-7.4c0.4-1.4-0.9-2.5-0.9-2.5  s-0.2-0.1-0.2-0.3c0-0.2,0.4-3.7,0.4-3.7L43,7.8c0,0,0.2-2.3,0.3-2.6c0.1-0.3,1.6-0.7,6.7-0.7s6.9,0.3,6.9,0.6  c0,0.3,0.2,2.6,0.2,2.6l-0.2,0.8c0,0,0.4,3.6,0.4,3.7c0,0.2-0.2,0.3-0.2,0.3s-1.2,1-0.9,2.5c0.2,0.6,2.1,3.9,2.6,7.4  c0.1,0.7,0.1,2.2,0.1,2.2s-1.9-0.4-8.8-0.4c-6.9,0-9,0.7-9,0.7S41,23.4,41.1,22.6z M45.6,37.7c2.5,0.5,8,1.5,12.8,2.1  c2.5,0.3,4.5,0.5,6.3,0.7C66.1,40.7,56,41.4,48,41c-8.1-0.4-11.6-0.7-13-0.9C32.2,39.7,40.8,36.7,45.6,37.7z M71,88.1H29.2V47.7H71  V88.1z"/></g><g id="SvgjsG1534" featurekey="dVtZHI-0" transform="matrix(5.405355669958249,0,0,5.405355669958249,72.99946259657995,-12.918706803435246)" fill="#111"><path d="M1.8 20 c0.58666 0 1.1334 -0.06664 1.6401 -0.19998 l-0.16 -0.6 c-0.45334 0.12 -0.94668 0.18 -1.48 0.18 l-1.18 0 l0 -14.46 l1.18 0 c0.86666 0 1.6633 0.17 2.39 0.51 s1.3533 0.81 1.88 1.41 s0.94 1.3233 1.24 2.17 s0.45 1.7767 0.45 2.79 l0 0.42 c0 0.74666 -0.1 1.48 -0.3 2.2 s-0.47334 1.3833 -0.82 1.99 s-0.75332 1.1367 -1.22 1.59 s-0.96 0.78 -1.48 0.98 l0.24 0.58 c0.58666 -0.24 1.1333 -0.60334 1.64 -1.09 s0.95 -1.0567 1.33 -1.71 s0.68 -1.37 0.9 -2.15 s0.33 -1.5767 0.33 -2.39 l0 -0.42 c0 -1.0933 -0.16666 -2.0966 -0.5 -3.01 s-0.79334 -1.7033 -1.38 -2.37 s-1.28 -1.1867 -2.08 -1.56 s-1.6733 -0.56 -2.62 -0.56 l-1.8 0 l0 15.7 l1.8 0 z M15.58 15.219999999999999 c0.85334 -0.48 1.5067 -1.1567 1.96 -2.03 s0.68 -1.8633 0.68 -2.97 l0 -0.28 c0 -1.64 -0.49 -3 -1.47 -4.08 s-2.3766 -1.62 -4.19 -1.62 l-1.38 0 l0 6.34 c0.22666 0.01334 0.45332 0.02 0.67998 0.02 l0 -5.72 l0.66 0 c1.64 0 2.88 0.47666 3.72 1.43 s1.26 2.1766 1.26 3.67 l0 0.22 c0 1.48 -0.42 2.6934 -1.26 3.64 s-2.08 1.42 -3.72 1.42 l-0.66 0 l0 0 l-0.68 0 l0 0.64 c0.4 0.01334 0.66666 0.02 0.8 0.02 l0.58 0 c0.92 0 1.7267 -0.14 2.42 -0.42 l2.48 4.5 l0.8 0 z M26.2 6.140000000000001 c0 0.08 0.23666 0.84334 0.71 2.29 s0.99 3.03 1.55 4.75 s1.3133 3.9934 2.26 6.82 l0.86 0 l-5.3 -15.76 l-0.16 0 l-5.26 15.76 l0.82 0 z M25.84 15.52 l-0.72 0 l1.2 4.48 l0.72 0 z M43.26 20 l0 -15.76 l-0.66 0 l-3.88 7.22 l-2.58 -4.8 l-0.58 0.32 l3.16 5.86 l3.9 -7.28 l0 14.44 l0.64 0 z M34.82 20 l0 -14.4 l0.16 0.3 l0.58 -0.3 l-0.74 -1.36 l-0.64 0 l0 15.76 l0.64 0 z M54.94 20 l0 -15.76 l-0.66 0 l-3.88 7.22 l-2.58 -4.8 l-0.58 0.32 l3.16 5.86 l3.9 -7.28 l0 14.44 l0.64 0 z M46.5 20 l0 -14.4 l0.16 0.3 l0.58 -0.3 l-0.74 -1.36 l-0.64 0 l0 15.76 l0.64 0 z"/></g></svg>