<svg width="297" height="86" viewBox="0 0 297 86" fill="none" xmlns="http://www.w3.org/2000/svg">
<path d="M9.7291 85.1884C12.9002 85.1884 15.8555 84.8282 18.5944 84.1074L17.7296 80.8642C15.2791 81.5129 12.6124 81.8372 9.72964 81.8372H3.35132V3.67575H9.72964C14.4142 3.67575 18.7204 4.59466 22.6484 6.43248C26.5765 8.2703 29.9635 10.8108 32.8105 14.054C35.6575 17.2972 37.8915 21.2069 39.5131 25.7837C41.1348 30.3604 41.9456 35.3874 41.9456 40.8646V43.1348C41.9456 47.1708 41.405 51.1348 40.324 55.0266C39.2429 58.9185 37.7654 62.5039 35.8916 65.7833C34.0177 69.0627 31.8196 71.9275 29.297 74.3778C26.7745 76.828 24.1079 78.594 21.2971 79.6751L22.5944 82.8102C25.7655 81.5129 28.7203 79.5489 31.4592 76.9183C34.1981 74.2877 36.5943 71.2065 38.6483 67.6752C40.7023 64.1438 42.3239 60.2698 43.5131 56.0536C44.7023 51.8375 45.2969 47.531 45.2969 43.1348V40.8646C45.2969 34.9549 44.396 29.5317 42.5942 24.5945C40.7924 19.6572 38.3059 15.3875 35.1348 11.7838C31.9637 8.18003 28.216 5.36925 23.8917 3.35143C19.5674 1.33361 14.8469 0.324432 9.72964 0.324432H0V85.1885L9.7291 85.1884ZM84.2149 59.3508C88.8275 56.7562 92.3592 53.0984 94.8094 48.3779C97.2597 43.6574 98.485 38.3061 98.485 32.324V30.8105C98.485 21.9457 95.8364 14.5945 90.5392 8.75668C85.2419 2.91889 77.6928 0 67.8907 0H60.4313V34.27C61.6565 34.3421 62.8817 34.3781 64.1069 34.3781V3.45943H67.6744C76.5392 3.45943 83.2418 6.03595 87.7823 11.1891C92.3228 16.3422 94.5931 22.9544 94.5931 31.0267V32.2159C94.5931 40.2158 92.3228 46.7747 87.7823 51.8914C83.2418 57.0081 76.5392 59.567 67.6744 59.567H64.1069H60.4312V63.0264C62.5934 63.0986 64.0348 63.1346 64.7555 63.1346H67.8906C72.8635 63.1346 77.224 62.3778 80.9716 60.8643L94.3769 85.1884H98.7011L84.2149 59.3508ZM141.62 10.2702C141.62 10.7026 142.899 14.8287 145.458 22.6484C148.016 30.4682 150.809 39.0267 153.836 48.3239C156.863 57.6211 160.935 69.9096 166.052 85.1884H170.701L142.052 0H141.187L112.755 85.1884H117.188L141.62 10.2702ZM139.674 60.9724H135.782L142.268 85.1884H146.16L139.674 60.9724ZM233.835 85.1884V0H230.268L209.295 39.0267L195.349 13.081L192.214 14.8107L209.295 46.4861L230.376 7.13507V85.1884H233.835ZM188.214 85.1884V7.35128L189.079 8.97289L192.214 7.35128L188.214 0H184.755V85.1884H188.214ZM296.97 85.1884V0H293.402L272.429 39.0267L258.484 13.081L255.348 14.8107L272.429 46.4861L293.51 7.13507V85.1884H296.97ZM251.348 85.1884V7.35128L252.213 8.97289L255.348 7.35128L251.348 0H247.889V85.1884H251.348Z" fill="#111111"/>
</svg>
